<svg width="55" height="55" viewBox="0 0 55 55" fill="none" xmlns="http://www.w3.org/2000/svg">
<circle cx="27.5" cy="27.5" r="27.5" fill="#6E6BD3"/>
<g clip-path="url(#clip0_411_1016)">
<path fill-rule="evenodd" clip-rule="evenodd" d="M39.4102 35.0985C38.9098 33.2117 38.4087 31.3249 37.9083 29.4381C37.419 27.6021 36.9326 25.7648 36.4399 23.9302C36.2782 23.3284 36.1593 22.7103 35.8415 22.1593C35.4636 21.5052 34.8974 21.0827 34.1695 20.9556C34.096 20.9429 34.0211 20.8842 33.9469 20.8842H29.2018V19.5039C34.8715 18.883 40.6154 17.7047 40.6154 14.3846H15.2308C15.2308 17.846 20.7101 18.9861 26.6276 19.5703C26.6199 19.612 26.6129 19.6593 26.6129 19.7038V20.8835H21.7194C21.3148 20.8835 20.932 21.1343 20.5848 21.3921C20.0151 21.8139 19.7394 22.4327 19.5623 23.0917C19.0346 25.0577 18.5153 27.0342 17.9911 29.0015C17.3164 31.5297 16.6375 34.0608 15.9684 36.5897C15.8236 37.1365 15.6829 37.6889 15.5856 38.2462C15.4491 39.0374 15.9482 39.6682 16.7488 39.7268C17.2562 39.7643 17.7678 39.7629 18.2773 39.7629C18.4425 39.7643 37.1286 39.7664 37.2728 39.7664C37.8131 39.765 38.3548 39.7819 38.8916 39.7396C39.94 39.6569 40.4103 39.0042 40.1612 37.9743C39.9288 37.0121 39.6636 36.0571 39.4102 35.0985ZM27.8951 37.7715C23.8428 37.7715 20.5569 34.4564 20.5569 30.3649C20.5569 26.2734 23.8428 22.9568 27.8951 22.9568C31.9488 22.9568 35.2347 26.2734 35.2347 30.3649C35.2347 34.4564 31.9488 37.7715 27.8951 37.7715Z" fill="white"/>
<path d="M27.9231 24.975C28.3429 24.975 28.6832 24.6315 28.6832 24.2079C28.6832 23.7842 28.3429 23.4407 27.9231 23.4407C27.5033 23.4407 27.163 23.7842 27.163 24.2079C27.163 24.6315 27.5033 24.975 27.9231 24.975Z" fill="white"/>
<path fill-rule="evenodd" clip-rule="evenodd" d="M27.9231 35.7201C27.5032 35.7201 27.163 36.0634 27.163 36.4873C27.163 36.9111 27.5032 37.2544 27.9231 37.2544C28.343 37.2544 28.6832 36.9111 28.6832 36.4873C28.6832 36.0634 28.343 35.7201 27.9231 35.7201Z" fill="white"/>
<path fill-rule="evenodd" clip-rule="evenodd" d="M34.0064 30.8784C34.4256 30.8784 34.7665 30.5351 34.7665 30.1113C34.7665 29.6881 34.4263 29.3441 34.0064 29.3441C33.5865 29.3441 33.2463 29.6874 33.2463 30.1113C33.2463 30.5351 33.5865 30.8784 34.0064 30.8784Z" fill="white"/>
<path fill-rule="evenodd" clip-rule="evenodd" d="M21.8405 29.4621C21.4205 29.4621 21.0804 29.8054 21.0804 30.2292C21.0804 30.6531 21.4205 30.9964 21.8405 30.9964C22.2597 30.9964 22.5998 30.6531 22.5998 30.2292C22.5998 29.8054 22.2597 29.4621 21.8405 29.4621Z" fill="white"/>
<path fill-rule="evenodd" clip-rule="evenodd" d="M31.2174 26.623L31.1887 26.5941L27.9413 29.8725C27.809 29.8838 27.6291 29.9219 27.5081 30.0449C27.2918 30.2631 27.2974 30.622 27.5137 30.8403C27.7299 31.0585 28.0939 31.072 28.3101 30.8544C28.4319 30.7315 28.4718 30.5528 28.4837 30.42L31.7318 27.1415L31.7031 27.1126L32.4191 25.9004L31.2174 26.623Z" fill="white"/>
</g>
<defs>
<clipPath id="clip0_411_1016">
<rect width="25.3846" height="25.3846" fill="white" transform="translate(15.2308 14.3846)"/>
</clipPath>
</defs>
</svg>
