<svg width="55" height="55" viewBox="0 0 55 55" fill="none" xmlns="http://www.w3.org/2000/svg">
<circle cx="27.5" cy="27.5" r="27.5" fill="#FFB72C"/>
<g clip-path="url(#clip0_411_1284)">
<path d="M32.3592 27.592V15.5236C32.3592 12.5627 29.9894 10.1538 27.0771 10.1538C24.1646 10.1538 21.7951 12.5627 21.7951 15.5236V27.592C20.6558 28.3922 19.6983 29.4464 19.0062 30.6678C18.1968 32.0961 17.7693 33.7269 17.7693 35.3837C17.7693 37.9113 18.7374 40.2874 20.4955 42.0747C22.2536 43.862 24.5908 44.8461 27.0771 44.8461C29.5635 44.8461 31.9007 43.862 33.6588 42.0747C35.4169 40.2874 36.385 37.9113 36.385 35.3837C36.385 33.7269 35.9575 32.0961 35.1481 30.6678C34.4559 29.4464 33.4985 28.3922 32.3592 27.592ZM27.0771 42.8824C23.0098 42.8824 19.7009 39.5186 19.7009 35.3837C19.7009 32.7375 21.0318 30.3382 23.2612 28.9649C23.55 28.7869 23.7267 28.4684 23.7267 28.1251V15.5236C23.7264 13.6457 25.2295 12.1176 27.0771 12.1176C28.9244 12.1176 30.4275 13.6457 30.4275 15.5236V28.1254C30.4275 28.4688 30.604 28.7872 30.8931 28.9653C33.1225 30.3382 34.4534 32.7379 34.4534 35.384C34.453 39.5186 31.1442 42.8824 27.0771 42.8824Z" fill="white"/>
<path d="M30.0586 30.3647L28.8175 29.6005V22.1057C28.8175 21.1297 28.0365 20.336 27.0768 20.336C26.1171 20.336 25.3361 21.13 25.3361 22.1057V29.6005L24.095 30.3647C23.2602 30.8789 22.5616 31.6051 22.0745 32.4646C21.5749 33.3473 21.3105 34.3566 21.3105 35.3837C21.3105 38.6163 23.8973 41.246 27.0771 41.246C30.2565 41.246 32.8436 38.6163 32.8436 35.3837C32.8436 34.3566 32.5793 33.347 32.0794 32.4643C31.5923 31.6051 30.8937 30.8792 30.0586 30.3647Z" fill="white"/>
</g>
<defs>
<clipPath id="clip0_411_1284">
<rect width="18.6154" height="34.6923" fill="white" transform="translate(17.7693 10.1538)"/>
</clipPath>
</defs>
</svg>
